<svg viewBox="0 0 200 200" xmlns="http://www.w3.org/2000/svg" role="img" aria-label="6/14 Co-Living emblem">
  <defs>
    <radialGradient id="emblemBg" cx="35%" cy="30%" r="75%">
      <stop offset="0%" stop-color="#2a2a2a"/>
      <stop offset="55%" stop-color="#141414"/>
      <stop offset="100%" stop-color="#050505"/>
    </radialGradient>
    <linearGradient id="goldRing" x1="0%" y1="0%" x2="100%" y2="100%">
      <stop offset="0%" stop-color="#fdeeb0"/>
      <stop offset="22%" stop-color="#d4af37"/>
      <stop offset="50%" stop-color="#b8860b"/>
      <stop offset="78%" stop-color="#e8c766"/>
      <stop offset="100%" stop-color="#a97a1f"/>
    </linearGradient>
    <linearGradient id="goldHouses" x1="0%" y1="0%" x2="0%" y2="100%">
      <stop offset="0%" stop-color="#f6dd8c"/>
      <stop offset="45%" stop-color="#d4af37"/>
      <stop offset="100%" stop-color="#a97a1f"/>
    </linearGradient>
    <clipPath id="circleClip">
      <circle cx="100" cy="100" r="82"/>
    </clipPath>
  </defs>

  <circle cx="100" cy="100" r="94" fill="url(#goldRing)"/>
  <circle cx="100" cy="100" r="82" fill="url(#emblemBg)"/>

  <g clip-path="url(#circleClip)">
    <path d="M20 40 L120 -10 L100 60 Z" fill="#ffffff" opacity="0.05"/>
    <circle cx="150" cy="55" r="2" fill="#fdeeb0" opacity="0.9"/>
    <circle cx="158" cy="70" r="1.2" fill="#fdeeb0" opacity="0.7"/>
    <circle cx="30" cy="150" r="1.4" fill="#fdeeb0" opacity="0.6"/>
  </g>

  <g fill="none" stroke="url(#goldHouses)" stroke-width="3.2" stroke-linejoin="round" stroke-linecap="round">
    <path d="M40 150 L70 122 L100 150" />
    <path d="M95 150 L128 118 L161 150" />
    <path d="M78 150 L112 108 L146 150" />
  </g>
  <g fill="url(#goldHouses)">
    <rect x="52" y="138" width="8" height="14" rx="1"/>
    <rect x="103" y="132" width="10" height="10" rx="1"/>
    <rect x="119" y="132" width="10" height="10" rx="1"/>
    <path d="M52 138 h8 v-14 h-6 z"/>
  </g>
  <path d="M32 156 Q100 138 168 156" fill="none" stroke="url(#goldHouses)" stroke-width="3" stroke-linecap="round"/>

  <g fill="#fdeeb0">
    <path d="M112 105 l2.4 5.8 5.8 2.4-5.8 2.4-2.4 5.8-2.4-5.8-5.8-2.4 5.8-2.4z" opacity="0.95"/>
    <path d="M150 40 l1.6 3.8 3.8 1.6-3.8 1.6-1.6 3.8-1.6-3.8-3.8-1.6 3.8-1.6z" opacity="0.85"/>
  </g>
</svg>
